GIL11_xslow1_ik
nRows=3
nColumns=375

# SIMM Motion File Header:
name GIL11_xslow1_ik
datacolumns 375
datarows 3
otherdata 1
range 0.28333000 0.30000000
endheader
time	pelvis_tx	pelvis_ty	pelvis_tz	pelvis_tilt	pelvis_list	pelvis_rotation	hip_flexion_r	hip_adduction_r	hip_rotation_r	knee_angle_r	ankle_angle_r	hip_flexion_l	hip_adduction_l	hip_rotation_l	knee_angle_l	ankle_angle_l	lumbar_extension	lumbar_bending	lumbar_rotation	subtalar_angle_r	mtp_angle_r	subtalar_angle_l	mtp_angle_l	asis_r_px	asis_r_py	asis_r_pz	asis_l_px	asis_l_py	asis_l_pz	midasis_px	midasis_py	midasis_pz	psis_r_px	psis_r_py	psis_r_pz	psis_l_px	psis_l_py	psis_l_pz	hip_r_px	hip_r_py	hip_r_pz	hip_l_px	hip_l_py	hip_l_pz	midhip_px	midhip_py	midhip_pz	epicondLat_r_px	epicondLat_r_py	epicondLat_r_pz	epicondMed_r_px	epicondMed_r_py	epicondMed_r_pz	thighwand_r_px	thighwand_r_py	thighwand_r_pz	upperleg1_r_px	upperleg1_r_py	upperleg1_r_pz	upperleg2_r_px	upperleg2_r_py	upperleg2_r_pz	malleolusLat_r_px	malleolusLat_r_py	malleolusLat_r_pz	malleolusMedv_r_px	malleolusMedv_r_py	malleolusMedv_r_pz	shankwand_r_px	shankwand_r_py	shankwand_r_pz	lowerleg1_r_px	lowerleg1_r_py	lowerleg1_r_pz	knee_r_px	knee_r_py	knee_r_pz	ankle_r_px	ankle_r_py	ankle_r_pz	toe_r_px	toe_r_py	toe_r_pz	epicondLat_l_px	epicondLat_l_py	epicondLat_l_pz	epicondMed_l_px	epicondMed_l_py	epicondMed_l_pz	thighwand_l_px	thighwand_l_py	thighwand_l_pz	upperleg1_l_px	upperleg1_l_py	upperleg1_l_pz	upperleg2_l_px	upperleg2_l_py	upperleg2_l_pz	malleolusLat_l_px	malleolusLat_l_py	malleolusLat_l_pz	malleolusMedv_l_px	malleolusMedv_l_py	malleolusMedv_l_pz	shankwand_l_px	shankwand_l_py	shankwand_l_pz	lowerleg1_l_px	lowerleg1_l_py	lowerleg1_l_pz	knee_l_px	knee_l_py	knee_l_pz	ankle_l_px	ankle_l_py	ankle_l_pz	toe_l_px	toe_l_py	toe_l_pz	subclavicle_r_px	subclavicle_r_py	subclavicle_r_pz	subclavicle_l_px	subclavicle_l_py	subclavicle_l_pz	neck_px	neck_py	neck_pz	sternalnotch_px	sternalnotch_py	sternalnotch_pz	xyphoidprocess_px	xyphoidprocess_py	xyphoidprocess_pz	midhip_tx	midhip_ty	midhip_tz	hip_r_tx	hip_r_ty	hip_r_tz	hip_l_tx	hip_l_ty	hip_l_tz	knee_r_tx	knee_r_ty	knee_r_tz	knee_l_tx	knee_l_ty	knee_l_tz	ankle_r_tx	ankle_r_ty	ankle_r_tz	ankle_l_tx	ankle_l_ty	ankle_l_tz	midasis_tx	midasis_ty	midasis_tz	asis_r_tx	asis_r_ty	asis_r_tz	asis_l_tx	asis_l_ty	asis_l_tz	psis_r_tx	psis_r_ty	psis_r_tz	psis_l_tx	psis_l_ty	psis_l_tz	epicondLat_r_tx	epicondLat_r_ty	epicondLat_r_tz	epicondLat_l_tx	epicondLat_l_ty	epicondLat_l_tz	epicondMed_r_tx	epicondMed_r_ty	epicondMed_r_tz	epicondMed_l_tx	epicondMed_l_ty	epicondMed_l_tz	malleolusLat_r_tx	malleolusLat_r_ty	malleolusLat_r_tz	malleolusLat_l_tx	malleolusLat_l_ty	malleolusLat_l_tz	malleolusMedv_r_tx	malleolusMedv_r_ty	malleolusMedv_r_tz	malleolusMedv_l_tx	malleolusMedv_l_ty	malleolusMedv_l_tz	neck_tx	neck_ty	neck_tz	subclavicle_r_tx	subclavicle_r_ty	subclavicle_r_tz	subclavicle_l_tx	subclavicle_l_ty	subclavicle_l_tz	sternalnotch_tx	sternalnotch_ty	sternalnotch_tz	xyphoidprocess_tx	xyphoidprocess_ty	xyphoidprocess_tz	thighwand_r_tx	thighwand_r_ty	thighwand_r_tz	thighwand_l_tx	thighwand_l_ty	thighwand_l_tz	upperleg1_r_tx	upperleg1_r_ty	upperleg1_r_tz	upperleg1_l_tx	upperleg1_l_ty	upperleg1_l_tz	upperleg2_r_tx	upperleg2_r_ty	upperleg2_r_tz	upperleg2_l_tx	upperleg2_l_ty	upperleg2_l_tz	shankwand_r_tx	shankwand_r_ty	shankwand_r_tz	shankwand_l_tx	shankwand_l_ty	shankwand_l_tz	lowerleg1_r_tx	lowerleg1_r_ty	lowerleg1_r_tz	lowerleg1_l_tx	lowerleg1_l_ty	lowerleg1_l_tz	toe_r_tx	toe_r_ty	toe_r_tz	toe_l_tx	toe_l_ty	toe_l_tz	ground_force_vx	ground_force_vy	ground_force_vz	ground_force_px	ground_force_py	ground_force_pz	ground_force_vx	ground_force_vy	ground_force_vz	ground_force_px	ground_force_py	ground_force_pz	ground_torque_x	ground_torque_y	ground_torque_z	ground_torque_x	ground_torque_y	ground_torque_z	ground_marker_px	ground_marker_py	ground_marker_pz	ground_marker_px	ground_marker_py	ground_marker_pz	ground_marker_px	ground_marker_py	ground_marker_pz	ground_marker_px	ground_marker_py	ground_marker_pz	ground_marker_px	ground_marker_py	ground_marker_pz	ground_marker_px	ground_marker_py	ground_marker_pz	ground_marker_px	ground_marker_py	ground_marker_pz	ground_marker_px	ground_marker_py	ground_marker_pz	ground_marker_px	ground_marker_py	ground_marker_pz	ground_marker_px	ground_marker_py	ground_marker_pz	ground_marker_px	ground_marker_py	ground_marker_pz	ground_marker_px	ground_marker_py	ground_marker_pz	ground_marker_px	ground_marker_py	ground_marker_pz	ground_marker_px	ground_marker_py	ground_marker_pz	ground_marker_px	ground_marker_py	ground_marker_pz	ground_marker_px	ground_marker_py	ground_marker_pz	ground_marker_px	ground_marker_py	ground_marker_pz	ground_marker_px	ground_marker_py	ground_marker_pz	ground_marker_px	ground_marker_py	ground_marker_pz	ground_marker_px	ground_marker_py	ground_marker_pz	ground_marker_px	ground_marker_py	ground_marker_pz	ground_marker_px	ground_marker_py	ground_marker_pz	ground_marker_px	ground_marker_py	ground_marker_pz	ground_marker_px	ground_marker_py	ground_marker_pz	ground_marker_px	ground_marker_py	ground_marker_pz	ground_marker_px	ground_marker_py	ground_marker_pz	ground_marker_px	ground_marker_py	ground_marker_pz	ground_marker_px	ground_marker_py	ground_marker_pz	ground_marker_px	ground_marker_py	ground_marker_pz	ground_marker_px	ground_marker_py	ground_marker_pz	ground_marker_px	ground_marker_py	ground_marker_pz	ground_marker_px	ground_marker_py	ground_marker_pz	ground_marker_px	ground_marker_py	ground_marker_pz	ground_marker_px	ground_marker_py	ground_marker_pz	ground_marker_px	ground_marker_py	ground_marker_pz	ground_marker_px	ground_marker_py	ground_marker_pz	ground_marker_px	ground_marker_py	ground_marker_pz
      0.28333000	      0.19248162	      0.87346937	     -0.30182298	     -2.68611123	      4.84953016	     -2.95282321	      1.62100206	     -9.18437986	      1.16205323	    -47.06159807	    -24.46684147	     11.12537220	      7.44289489	      5.73880988	     -7.40270329	     -1.19734225	     -0.86330502	     -5.03176129	      2.74887703	      0.00000000	      0.00000000	      0.00000000	      0.00000000	      0.23453034	      0.85183087	     -0.18992031	      0.24588157	      0.87450905	     -0.42378627	      0.20531242	      0.87281131	     -0.30116265	      0.04872067	      0.93830376	     -0.27572982	      0.04806974	      0.93970937	     -0.33041520	      0.12059792	      0.81005146	     -0.23394038	      0.12910152	      0.82262264	     -0.38664467	      0.12484972	      0.81633705	     -0.31029252	      0.12919830	      0.42344294	     -0.14213914	      0.13323803	      0.41367155	     -0.25872951	      0.29346578	      0.54917143	     -0.22068811	      0.22666135	      0.60761237	     -0.17538450	      0.21051179	      0.52149568	     -0.16696535	     -0.19117060	      0.18944058	     -0.14808147	     -0.16429905	      0.16082578	     -0.21245062	     -0.14202376	      0.25518354	     -0.08574934	     -0.12894278	      0.25157930	     -0.12791903	      0.11303277	      0.42739065	     -0.20434889	     -0.16670740	      0.18082359	     -0.19397047	     -0.18482336	      0.07793581	     -0.12790096	      0.22361324	      0.43330603	     -0.42875685	      0.20022548	      0.44636896	     -0.30778643	      0.25200109	      0.56491809	     -0.51349821	      0.17631847	      0.60860574	     -0.46849280	      0.19287845	      0.52402392	     -0.44969225	      0.17550387	      0.05755590	     -0.40381172	      0.18411676	      0.06917561	     -0.33463411	      0.27517619	      0.18152294	     -0.34467057	      0.23534038	      0.17986221	     -0.35861904	      0.17806886	      0.44818366	     -0.36585000	      0.18232347	      0.07539323	     -0.35293560	      0.28981491	      0.02975685	     -0.37437981	      0.18254560	      1.33050774	     -0.24843974	      0.18512161	      1.32617894	     -0.35422192	      0.05226187	      1.36417718	     -0.30153444	      0.18100611	      1.32445866	     -0.30070511	      0.23409497	      1.26445264	     -0.30079244	      0.13384100	      0.82677500	     -0.30625300	      0.11531800	      0.79908300	     -0.23452900	      0.11967200	      0.80918700	     -0.38625800	      0.10627400	      0.42648500	     -0.19464700	      0.17494100	      0.43178300	     -0.36417900	     -0.16939500	      0.17653700	     -0.22007500	      0.17864200	      0.06878300	     -0.33497900	      0.20527300	      0.88047800	     -0.29974300	      0.19798400	      0.87236500	     -0.18151400	      0.21256200	      0.88859100	     -0.41797200	      0.00522800	      0.93342900	     -0.27697500	      0.00581700	      0.93156200	     -0.33170700	      0.10449300	      0.43269800	     -0.13700900	      0.18525700	      0.42995700	     -0.42122500	      0.13002500	      0.42004400	     -0.25536200	      0.18268300	      0.44389300	     -0.30513500	     -0.18564300	      0.19104400	     -0.18652600	      0.16776000	      0.06558600	     -0.37333700	     -0.14975500	      0.17223600	     -0.24914500	      0.18951300	      0.07833900	     -0.31072100	      0.05566600	      1.37599600	     -0.30162300	      0.18069700	      1.31541300	     -0.24779600	      0.18216900	      1.31157700	     -0.35418100	      0.17766900	      1.31026600	     -0.30033100	      0.21832300	      1.24104800	     -0.30115800	      0.28050900	      0.56088800	     -0.20881700	      0.21063400	      0.56089200	     -0.51454000	      0.21063200	      0.61610500	     -0.16380800	      0.14313300	      0.60691900	     -0.46134700	      0.19911700	      0.52889000	     -0.15844800	      0.15938100	      0.52273800	     -0.44502200	     -0.14409500	      0.25988100	     -0.11322700	      0.26876500	      0.19861700	     -0.33221400	     -0.13027200	      0.25858600	     -0.15359500	      0.22782400	      0.19336200	     -0.34302200	     -0.16509000	      0.07347700	     -0.19683000	      0.28873600	      0.04247600	     -0.36501200	      0.00000000	      0.00000000	      0.00000000	      0.57500128	      0.00000000	     -0.24338286	    -47.83047163	    603.63931999	     22.55838948	      0.21144962	      0.00000000	     -0.34510248	      0.00000000	      0.00000000	      0.00000000	      0.00000000	      1.37695056	      0.00000000	      0.13384061	      0.82677495	     -0.30625319	      0.11531850	      0.79908317	     -0.23452869	      0.11967152	      0.80918688	     -0.38625798	      0.10627360	      0.42648521	     -0.19464748	      0.17494084	      0.43178305	     -0.36417934	     -0.16939455	      0.17653680	     -0.22007473	      0.17864239	      0.06878292	     -0.33497900	      0.20527339	      0.88047796	     -0.29974312	      0.19798443	      0.87236530	     -0.18151435	      0.21256235	      0.88859063	     -0.41797188	      0.00522800	      0.93342853	     -0.27697459	      0.00581665	      0.93156224	     -0.33170655	      0.10449260	      0.43269780	     -0.13700868	      0.18525729	      0.42995661	     -0.42122525	      0.13002464	      0.42004392	     -0.25536191	      0.18268295	      0.44389272	     -0.30513549	     -0.18564267	      0.19104391	     -0.18652561	      0.16776034	      0.06558634	     -0.37333733	     -0.14975515	      0.17223582	     -0.24914469	      0.18951300	      0.07833923	     -0.31072059	      0.05566640	      1.37599587	     -0.30162287	      0.18069690	      1.31541300	     -0.24779639	      0.18216889	      1.31157672	     -0.35418123	      0.17766860	      1.31026566	     -0.30033135	      0.21832347	      1.24104786	     -0.30115846	      0.28050914	      0.56088823	     -0.20881690	      0.21063444	      0.56089187	     -0.51453972	      0.21063182	      0.61610490	     -0.16380814	      0.14313281	      0.60691899	     -0.46134669	      0.19911721	      0.52889007	     -0.15844789	      0.15938078	      0.52273798	     -0.44502226	     -0.14409497	      0.25988096	     -0.11322676	      0.26876488	      0.19861737	     -0.33221364	     -0.13027166	      0.25858641	     -0.15359460	      0.22782391	      0.19336204	     -0.34302238	     -0.16508973	      0.07347691	     -0.19682999	      0.28873602	      0.04247606	     -0.36501229
      0.29167000	      0.19716462	      0.87367020	     -0.30311044	     -2.74073958	      4.79574287	     -2.87769134	      2.79187942	     -9.23450661	      1.34837601	    -48.75145109	    -24.98057693	     10.89931332	      7.48889804	      5.73120684	     -7.55753084	     -0.73588940	     -0.89659835	     -4.96164451	      2.40500330	      0.00000000	      0.00000000	      0.00000000	      0.00000000	      0.23934612	      0.85209418	     -0.19124568	      0.25040073	      0.87455807	     -0.42514653	      0.20999575	      0.87300190	     -0.30246685	      0.05349371	      0.93864869	     -0.27688016	      0.05277014	      0.94000698	     -0.33156583	      0.12531921	      0.81037241	     -0.23507535	      0.13362724	      0.82280275	     -0.38780194	      0.12947323	      0.81658758	     -0.31143865	      0.14160613	      0.42426237	     -0.14222412	      0.14549330	      0.41423919	     -0.25879831	      0.30320066	      0.55289586	     -0.22160945	      0.23541892	      0.61017272	     -0.17627085	      0.22094992	      0.52378629	     -0.16756416	     -0.18121800	      0.19262581	     -0.14745664	     -0.15467974	      0.16361621	     -0.21178733	     -0.13136458	      0.25798262	     -0.08527973	     -0.11834734	      0.25416504	     -0.12745037	      0.12536028	      0.42735443	     -0.20436167	     -0.15687256	      0.18367263	     -0.19334390	     -0.17691522	      0.08113512	     -0.12728625	      0.22618648	      0.43297271	     -0.42949913	      0.20306701	      0.44632593	     -0.30850884	      0.25506595	      0.56432164	     -0.51448231	      0.17967151	      0.60844039	     -0.46941380	      0.19585469	      0.52380722	     -0.45051646	      0.17529444	      0.05751840	     -0.40409448	      0.18410508	      0.06914256	     -0.33494252	      0.27598721	      0.18079446	     -0.34523825	      0.23611775	      0.17941823	     -0.35912141	      0.18084600	      0.44815382	     -0.36653295	      0.18232905	      0.07535510	     -0.35324742	      0.28976666	      0.02972523	     -0.37497342	      0.18756392	      1.33067973	     -0.24931784	      0.19062839	      1.32634430	     -0.35508672	      0.05757523	      1.36452317	     -0.30302157	      0.18626053	      1.32463116	     -0.30158969	      0.23926827	      1.26455363	     -0.30142752	      0.13823100	      0.82661700	     -0.30715700	      0.12006000	      0.79929200	     -0.23530900	      0.12416800	      0.80926400	     -0.38705400	      0.11824200	      0.42655900	     -0.19415700	      0.17762300	      0.43185100	     -0.36465600	     -0.15921800	      0.17984300	     -0.22051300	      0.17861100	      0.06875500	     -0.33495900	      0.20997600	      0.88055400	     -0.30074200	      0.20287900	      0.87254900	     -0.18252200	      0.21707300	      0.88855900	     -0.41896100	      0.01001100	      0.93360800	     -0.27764900	      0.01056400	      0.93185500	     -0.33236700	      0.11657300	      0.43292900	     -0.13653200	      0.18781900	      0.42990900	     -0.42172000	      0.14101800	      0.41993900	     -0.25455300	      0.18642900	      0.44517900	     -0.30469900	     -0.17513500	      0.19413300	     -0.18671300	      0.16782500	      0.06558600	     -0.37334700	     -0.13951600	      0.17461900	     -0.24915100	      0.18957400	      0.07830400	     -0.31070000	      0.06095600	      1.37639200	     -0.30310200	      0.18600900	      1.31576900	     -0.24868400	      0.18716700	      1.31174300	     -0.35479400	      0.18305900	      1.31049500	     -0.30121200	      0.22336900	      1.24125300	     -0.30187900	      0.28999900	      0.56354300	     -0.20939700	      0.21361900	      0.56066800	     -0.51518900	      0.21982600	      0.61774000	     -0.16479100	      0.14648500	      0.60718100	     -0.46219900	      0.20918000	      0.53009100	     -0.15867300	      0.16280000	      0.52261300	     -0.44511600	     -0.13275100	      0.26158800	     -0.11301900	      0.26974200	      0.19814700	     -0.33208900	     -0.11833700	      0.26034600	     -0.15333300	      0.22894900	      0.19268000	     -0.34285900	     -0.15714600	      0.07604300	     -0.19686100	      0.28878000	      0.04249200	     -0.36496700	      0.00000000	      0.00000000	      0.00000000	      0.57766730	      0.00000000	     -0.24287579	    -47.07768348	    606.70584068	     22.76598069	      0.21282698	      0.00000000	     -0.34495370	      0.00000000	      0.00000000	      0.00000000	      0.00000000	      1.38706787	      0.00000000	      0.13823113	      0.82661712	     -0.30715707	      0.12005964	      0.79929203	     -0.23530883	      0.12416790	      0.80926448	     -0.38705361	      0.11824243	      0.42655900	     -0.19415699	      0.17762284	      0.43185124	     -0.36465585	     -0.15921789	      0.17984341	     -0.22051308	      0.17861083	      0.06875461	     -0.33495888	      0.20997611	      0.88055372	     -0.30074191	      0.20287934	      0.87254858	     -0.18252239	      0.21707287	      0.88855880	     -0.41896144	      0.01001107	      0.93360752	     -0.27764884	      0.01056364	      0.93185496	     -0.33236736	      0.11657298	      0.43292925	     -0.13653204	      0.18781860	      0.42990884	     -0.42171961	      0.14101781	      0.41993877	     -0.25455302	      0.18642938	      0.44517925	     -0.30469853	     -0.17513473	      0.19413292	     -0.18671271	      0.16782485	      0.06558560	     -0.37334666	     -0.13951561	      0.17461935	     -0.24915078	      0.18957354	      0.07830400	     -0.31070021	      0.06095570	      1.37639225	     -0.30310178	      0.18600859	      1.31576920	     -0.24868445	      0.18716671	      1.31174266	     -0.35479406	      0.18305926	      1.31049526	     -0.30121207	      0.22336894	      1.24125326	     -0.30187914	      0.28999883	      0.56354278	     -0.20939666	      0.21361861	      0.56066805	     -0.51518917	      0.21982576	      0.61773980	     -0.16479076	      0.14648499	      0.60718107	     -0.46219894	      0.20918038	      0.53009069	     -0.15867276	      0.16279964	      0.52261305	     -0.44511607	     -0.13275112	      0.26158777	     -0.11301906	      0.26974162	      0.19814664	     -0.33208856	     -0.11833710	      0.26034644	     -0.15333259	      0.22894937	      0.19268009	     -0.34285909	     -0.15714565	      0.07604280	     -0.19686070	      0.28878006	      0.04249249	     -0.36496699
      0.30000000	      0.20173529	      0.87387287	     -0.30439154	     -2.78271541	      4.74713326	     -2.79683372	      3.97032703	     -9.26984335	      1.53835656	    -50.39378710	    -25.35261533	     10.65425728	      7.54541116	      5.79821233	     -7.68186333	     -0.29033908	     -0.97660052	     -4.84978437	      2.14126738	      0.00000000	      0.00000000	      0.00000000	      0.00000000	      0.24406522	      0.85235806	     -0.19257107	      0.25479544	      0.87463287	     -0.42650510	      0.21456692	      0.87319717	     -0.30376597	      0.05814242	      0.93896024	     -0.27800433	      0.05734062	      0.94027636	     -0.33268994	      0.12994944	      0.81067237	     -0.23620332	      0.13804428	      0.82297858	     -0.38895141	      0.13399686	      0.81682547	     -0.31257737	      0.15406880	      0.42519084	     -0.14244926	      0.15779403	      0.41495044	     -0.25900985	      0.31287274	      0.55675739	     -0.22265492	      0.24412304	      0.61281283	     -0.17724723	      0.23137301	      0.52618237	     -0.16828206	     -0.17089184	      0.19558116	     -0.14697906	     -0.14466592	      0.16622720	     -0.21128163	     -0.12040365	      0.26058940	     -0.08494911	     -0.10745414	      0.25658488	     -0.12712328	      0.13774284	      0.42744516	     -0.20450883	     -0.14666373	      0.18633309	     -0.19286994	     -0.16824303	      0.08412579	     -0.12678465	      0.22868422	      0.43264580	     -0.43015881	      0.20569090	      0.44627735	     -0.30917552	      0.25815981	      0.56373590	     -0.51533675	      0.18300367	      0.60828289	     -0.47029147	      0.19878428	      0.52359796	     -0.45128589	      0.17516660	      0.05750233	     -0.40435383	      0.18408792	      0.06913380	     -0.33521729	      0.27674539	      0.18012901	     -0.34566378	      0.23686136	      0.17901816	     -0.35952883	      0.18346998	      0.44812673	     -0.36718732	      0.18234765	      0.07534028	     -0.35352768	      0.28976717	      0.02974053	     -0.37540582	      0.19273878	      1.33073854	     -0.24993204	      0.19613013	      1.32649474	     -0.35569466	      0.06298557	      1.36487917	     -0.30401575	      0.19158952	      1.32474064	     -0.30221334	      0.24448205	      1.26456205	     -0.30193902	      0.14254000	      0.82639200	     -0.30811900	      0.12469200	      0.79950700	     -0.23606800	      0.12854800	      0.80936900	     -0.38782700	      0.13025400	      0.42674600	     -0.19381800	      0.18016300	      0.43187100	     -0.36507800	     -0.14868500	      0.18294500	     -0.22104100	      0.17858800	      0.06873400	     -0.33493700	      0.21454800	      0.88066500	     -0.30171200	      0.20765000	      0.87275100	     -0.18351000	      0.22144700	      0.88857900	     -0.41991400	      0.01472900	      0.93374600	     -0.27820400	      0.01519400	      0.93212800	     -0.33292100	      0.12869500	      0.43325300	     -0.13620600	      0.19031000	      0.42981900	     -0.42214700	      0.15121900	      0.42018000	     -0.25318400	      0.19045900	      0.44684000	     -0.30387600	     -0.16428200	      0.19698900	     -0.18699000	      0.16787600	      0.06559200	     -0.37334800	     -0.12934600	      0.17807800	     -0.25019100	      0.18952100	      0.07841200	     -0.31069600	      0.06637100	      1.37681400	     -0.30400500	      0.19133100	      1.31633000	     -0.24942600	      0.19260000	      1.31189100	     -0.35555900	      0.18835200	      1.31072000	     -0.30206700	      0.22870800	      1.24158800	     -0.30231300	      0.29947700	      0.56630800	     -0.21008000	      0.21664900	      0.56043700	     -0.51572600	      0.22906900	      0.61945600	     -0.16546000	      0.14992800	      0.60724800	     -0.46317500	      0.21905300	      0.53141800	     -0.15854700	      0.16645200	      0.52238300	     -0.44505600	     -0.12114200	      0.26309200	     -0.11293100	      0.27067600	      0.19768400	     -0.33199800	     -0.10715700	      0.26227600	     -0.15348600	      0.22997200	      0.19224800	     -0.34219100	     -0.14852500	      0.07848300	     -0.19683800	      0.28884100	      0.04253700	     -0.36490000	      0.00000000	      0.00000000	      0.00000000	      0.57998206	      0.00000000	     -0.24242723	    -46.08173950	    609.56298787	     22.59377125	      0.21442534	      0.00000000	     -0.34488489	      0.00000000	      0.00000000	      0.00000000	      0.00000000	      1.37103882	      0.00000000	      0.14253974	      0.82639205	     -0.30811909	      0.12469200	      0.79950726	     -0.23606789	      0.12854804	      0.80936867	     -0.38782653	      0.13025394	      0.42674595	     -0.19381833	      0.18016343	      0.43187061	     -0.36507827	     -0.14868453	      0.18294549	     -0.22104123	      0.17858803	      0.06873408	     -0.33493724	      0.21454838	      0.88066494	     -0.30171216	      0.20765004	      0.87275124	     -0.18351015	      0.22144674	      0.88857871	     -0.41991419	      0.01472850	      0.93374646	     -0.27820358	      0.01519412	      0.93212837	     -0.33292082	      0.12869458	      0.43325266	     -0.13620557	      0.19030972	      0.42981890	     -0.42214704	      0.15121853	      0.42018035	     -0.25318450	      0.19045864	      0.44683960	     -0.30387604	     -0.16428213	      0.19698894	     -0.18698986	      0.16787592	      0.06559239	     -0.37334794	     -0.12934582	      0.17807777	     -0.25019073	      0.18952097	      0.07841242	     -0.31069636	      0.06637123	      1.37681401	     -0.30400485	      0.19133082	      1.31632960	     -0.24942578	      0.19259998	      1.31189108	     -0.35555866	      0.18835159	      1.31072009	     -0.30206737	      0.22870819	      1.24158823	     -0.30231309	      0.29947704	      0.56630826	     -0.21007958	      0.21664870	      0.56043732	     -0.51572555	      0.22906868	      0.61945629	     -0.16546045	      0.14992817	      0.60724753	     -0.46317527	      0.21905315	      0.53141791	     -0.15854679	      0.16645159	      0.52238315	     -0.44505647	     -0.12114173	      0.26309243	     -0.11293088	      0.27067569	      0.19768420	     -0.33199844	     -0.10715657	      0.26227617	     -0.15348618	      0.22997181	      0.19224773	     -0.34219143	     -0.14852482	      0.07848310	     -0.19683793	      0.28884059	      0.04253657	     -0.36489955
